<svg xmlns="http://www.w3.org/2000/svg" viewBox="0 0 64 64" width="64" height="64" role="img" aria-label="Crop Advisory Logo">
  <defs>
    <linearGradient id="g1" x1="0" y1="0" x2="1" y2="1">
      <stop offset="0%" stop-color="#34d399"/>
      <stop offset="100%" stop-color="#60a5fa"/>
    </linearGradient>
    <linearGradient id="g2" x1="0" y1="1" x2="1" y2="0">
      <stop offset="0%" stop-color="#a78bfa"/>
      <stop offset="100%" stop-color="#34d399"/>
    </linearGradient>
  </defs>
  <rect x="4" y="4" width="56" height="56" rx="14" ry="14" fill="#0b1220"/>
  <g transform="translate(8 8)">
    <!-- Leaf -->
    <path d="M22 36c10-6 14-16 14-24 0-2-2-4-4-4-8 0-18 4-24 14 4-2 10-3 14-2-6 4-10 10-12 16 6-2 12-2 12 0z" fill="url(#g1)"/>
    <!-- Field lines -->
    <path d="M2 36c6-4 14-6 22-6s16 2 22 6" fill="none" stroke="url(#g2)" stroke-width="3" stroke-linecap="round"/>
    <path d="M10 44c4-3 10-4 14-4s10 1 14 4" fill="none" stroke="#60a5fa" stroke-opacity="0.6" stroke-width="2" stroke-linecap="round"/>
    <!-- Sun -->
    <circle cx="36" cy="10" r="5" fill="#f59e0b"/>
  </g>
</svg>

